<?xml version="1.0"?>
<svg xmlns="http://www.w3.org/2000/svg" xmlns:xlink="http://www.w3.org/1999/xlink" xmlns:svgjs="http://svgjs.com/svgjs" version="1.1" width="512" height="512" x="0" y="0" viewBox="0 0 333.949 333.949" style="enable-background:new 0 0 512 512" xml:space="preserve" class=""><g>
<g xmlns="http://www.w3.org/2000/svg">
	<g>
		<path d="M284.475,43.485V16.478h-35v27.007h-165V16.478h-35v27.007H0v253.986c0,11.046,8.954,20,20,20h293.949    c11.046,0,20-8.954,20-20V43.485H284.475z M294.468,275.103H39.481V103.853h254.987V275.103z" fill="#e8ffff" data-original="#000000" style="" class=""/>
	</g>
	<g>
		<rect x="75.976" y="136.479" width="41.998" height="41.998" fill="#e8ffff" data-original="#000000" style="" class=""/>
	</g>
	<g>
		<rect x="145.976" y="136.479" width="41.998" height="41.998" fill="#e8ffff" data-original="#000000" style="" class=""/>
	</g>
	<g>
		<rect x="215.976" y="136.479" width="41.998" height="41.998" fill="#e8ffff" data-original="#000000" style="" class=""/>
	</g>
	<g>
		<rect x="75.976" y="200.479" width="41.998" height="41.998" fill="#e8ffff" data-original="#000000" style="" class=""/>
	</g>
	<g>
		<rect x="145.976" y="200.479" width="41.998" height="41.998" fill="#e8ffff" data-original="#000000" style="" class=""/>
	</g>
	<g>
		<rect x="215.976" y="200.479" width="41.998" height="41.998" fill="#e8ffff" data-original="#000000" style="" class=""/>
	</g>
</g>
<g xmlns="http://www.w3.org/2000/svg">
</g>
<g xmlns="http://www.w3.org/2000/svg">
</g>
<g xmlns="http://www.w3.org/2000/svg">
</g>
<g xmlns="http://www.w3.org/2000/svg">
</g>
<g xmlns="http://www.w3.org/2000/svg">
</g>
<g xmlns="http://www.w3.org/2000/svg">
</g>
<g xmlns="http://www.w3.org/2000/svg">
</g>
<g xmlns="http://www.w3.org/2000/svg">
</g>
<g xmlns="http://www.w3.org/2000/svg">
</g>
<g xmlns="http://www.w3.org/2000/svg">
</g>
<g xmlns="http://www.w3.org/2000/svg">
</g>
<g xmlns="http://www.w3.org/2000/svg">
</g>
<g xmlns="http://www.w3.org/2000/svg">
</g>
<g xmlns="http://www.w3.org/2000/svg">
</g>
<g xmlns="http://www.w3.org/2000/svg">
</g>
</g></svg>
