<svg id="Capa_1" enable-background="new 0 0 512 512" height="512" viewBox="0 0 512 512" width="512" xmlns="http://www.w3.org/2000/svg"><g><path d="m128.324 210.63c-21.284 3.457-37.324 23.921-37.324 47.578v11.792h90v-15c0-26.947-24.014-49.121-52.676-44.37z"/><path d="m512 390v-390h-512v390h241v32h-15c-41.353 0-75 33.647-75 75v15h210v-15c0-41.353-33.647-75-75-75h-15v-32zm-61-90h-60v-30h60zm-120-210h120v30h-120zm-90 0h60v30h-60zm0 60h210v30h-210zm0 60h210v30h-210zm0 60h120v30h-120zm-105-180c24.814 0 45 20.186 45 45s-20.186 45-45 45-45-20.186-45-45 20.186-45 45-45zm75 210h-150v-41.792c0-104.747 150-101.439 150-3.208z"/><circle cx="136" cy="135" r="15"/></g></svg>